<svg xmlns="http://www.w3.org/2000/svg" viewBox="0 0 128.98 23"><defs><style>.cls-1{fill:#fff;}</style></defs><title>bajaj-finserve-logo</title><g id="Layer_2" data-name="Layer 2"><g id="Layer_7_Image" data-name="Layer 7 Image"><path class="cls-1" d="M11.59,0a11.5,11.5,0,1,0-.07,23A11.44,11.44,0,0,0,23.08,11.13,11.42,11.42,0,0,0,11.59,0Zm6.27,12.26a2.89,2.89,0,0,1,1,2.84A3.26,3.26,0,0,1,16,17.72a32.73,32.73,0,0,1-4,.38c-.36,0-.72,0-1.08,0s-.53-.11-.52-.5q0-1.08,0-2.16c0-.36.13-.48.48-.47,1.15,0,2.31,0,3.47,0,.4,0,.54-.12.5-.51a9.73,9.73,0,0,1,0-1.08c0-.32-.1-.42-.41-.42-1.18,0-2.35,0-3.52,0-.39,0-.54-.09-.52-.5,0-.7,0-1.41,0-2.11,0-.43.16-.55.56-.54,1.32,0,2.64,0,4,0,.37,0,.48-.11.46-.47s0-.87,0-1.3a.45.45,0,0,0-.3-.31c-2.24,0-4.48,0-6.72,0C8,7.75,8,7.91,8,8.13v9.19c0,.74-.06.79-.81.79H5.39c-.34,0-.52-.1-.52-.49q0-6.1,0-12.22c0-.38.15-.5.51-.5,2.7,0,5.41,0,8.11,0a8.49,8.49,0,0,1,3.67.77,2.94,2.94,0,0,1,1.76,2.57,2.81,2.81,0,0,1-1.25,2.47,12.17,12.17,0,0,1-1.18.7A15.64,15.64,0,0,1,17.86,12.26Z"/><path class="cls-1" d="M28.08,3.3h2c.43,0,.87,0,1.3,0a.87.87,0,0,1,1,.59c1,2.08,2.08,4.14,3.13,6.21a4.13,4.13,0,0,0,.24.37l.76-1.41c.92-1.81,1.85-3.62,2.76-5.44a.49.49,0,0,1,.53-.31c1.05,0,2.1,0,3.15,0,.35,0,.48.12.48.47V19.23c0,.34-.13.44-.45.44-1,0-2,0-3,0-.36,0-.42-.14-.42-.46,0-2.19,0-4.39,0-6.58v-.49l-.09-.05a3.4,3.4,0,0,0-.25.31c-.65,1.1-1.31,2.18-1.94,3.29a.65.65,0,0,1-.65.37c-.6,0-1.2,0-1.8,0a.79.79,0,0,1-.53-.31c-.69-1.12-1.36-2.25-2-3.38A2.68,2.68,0,0,0,32,12c0,.26,0,.41,0,.56,0,2.2,0,4.39,0,6.59,0,.38-.12.49-.48.48-1,0-2,0-3,0-.26,0-.41,0-.41-.37q0-7.89,0-15.78S28.06,3.44,28.08,3.3Z"/><path class="cls-1" d="M89,3.38,86.85,5.87l-3.06,3.6a.71.71,0,0,0-.08,1c1.77,2.93,3.51,5.89,5.26,8.84,0,.09.09.19.16.33-.17,0-.29,0-.42,0-1.28,0-2.56,0-3.83,0a.58.58,0,0,1-.61-.34c-1.1-2-2.22-3.94-3.33-5.91l-.25-.4c-.46.53-.89,1-1.3,1.52-.07.09,0,.26,0,.39,0,1.43,0,2.86,0,4.29,0,.35-.1.46-.46.46-1,0-2,0-3.07,0-.38,0-.52-.1-.52-.51q0-7.68,0-15.37c0-.4.14-.52.52-.52,1,0,2.05,0,3.07,0,.35,0,.46.11.46.47,0,1.55,0,3.09,0,4.64V9c.24-.27.41-.44.57-.63,1.3-1.59,2.59-3.19,3.9-4.78a.79.79,0,0,1,.51-.29c1.45,0,2.91,0,4.37,0A1.24,1.24,0,0,1,89,3.38Z"/><path class="cls-1" d="M102,3.3V6.88H95.52c-.66,0-.66,0-.66.64s0,1.08,0,1.62c0,.39.11.52.51.52,1.67,0,3.33,0,5,0,.59,0,.59,0,.59.6s0,1.45,0,2.17c0,.37-.08.52-.5.51-1.68,0-3.37,0-5,0h-.55c0,1,0,2,0,2.95,0,.08.16.2.26.23a1.35,1.35,0,0,0,.45,0H102v2.59c0,.93,0,.93-.93.93h-9.6c-.62,0-.62,0-.62-.62,0-5.05,0-10.09,0-15.14,0-.45.11-.6.58-.6,3.35,0,6.7,0,10,0Z"/><path class="cls-1" d="M59.74,19.61c-.15,0-.3,0-.44,0-1.09,0-2.17,0-3.25,0a.5.5,0,0,1-.58-.41c-.16-.57-.38-1.13-.53-1.7a.48.48,0,0,0-.53-.43H50.3a.52.52,0,0,0-.57.44,16,16,0,0,1-.55,1.65c-.07.17-.25.41-.39.41-1.29,0-2.58,0-4,0,.16-.46.29-.86.44-1.26l3-8.28c.78-2.15,1.57-4.29,2.35-6.43a.47.47,0,0,1,.53-.37q1.17,0,2.34,0a.49.49,0,0,1,.53.37Q54.86,6,55.71,8.35c.78,2.15,1.58,4.31,2.37,6.46q.84,2.3,1.66,4.58A.79.79,0,0,1,59.74,19.61Zm-6-5.76-1.3-4.57-.14,0L51,13.85Z"/><path class="cls-1" d="M128.74,5.07,126.3,7.52a13.51,13.51,0,0,0-1.93-.73,3.85,3.85,0,0,0-2.3.08,1.53,1.53,0,0,0-1,1.39,1.49,1.49,0,0,0,1.35,1.18c1.21.19,2.43.36,3.61.66a3.87,3.87,0,0,1,2.84,3.4,6.35,6.35,0,0,1-.14,2.71,4.82,4.82,0,0,1-3,3,10.17,10.17,0,0,1-5.13.45,6.66,6.66,0,0,1-4-1.84c0-.05-.09-.11-.13-.14l2.6-2.56a4.07,4.07,0,0,0,2.15.95,5.85,5.85,0,0,0,2.79-.06c.73-.24,1-.65,1-1.52,0-.6-.35-.95-1-1.07-1.06-.2-2.13-.32-3.18-.56a4,4,0,0,1-3.4-3.21c-.5-2.81.44-5.29,3.58-6.19a8.59,8.59,0,0,1,6.42.57A12,12,0,0,1,128.74,5.07Z"/><path class="cls-1" d="M69.84,12.87l3.52,6.78H69.1a.54.54,0,0,1-.58-.36c-.83-1.8-1.71-3.59-2.56-5.38a.52.52,0,0,0-.54-.35c-1.38,0-2.77,0-4.15,0a.53.53,0,0,1-.64-.43c-.29-.91-.65-1.81-1-2.78l.55,0h6.36a1.67,1.67,0,0,0,1.92-1.58A1.53,1.53,0,0,0,67.13,7c-1.91-.07-3.81-.08-5.72-.1H58.79a.49.49,0,0,1-.58-.39c-.35-1-.74-2.06-1.14-3.16l.54,0q4.65,0,9.29,0A5.47,5.47,0,0,1,71.15,5a5.21,5.21,0,0,1,1.3,4.19,4.47,4.47,0,0,1-2.38,3.53Z"/><path class="cls-1" d="M104,6.88V3.34l.47,0h11c.42,0,.55.12.54.53,0,.86,0,1.72,0,2.57,0,.35-.1.48-.46.47-1,0-2,0-3,0-.61,0-.61,0-.61.63V19c0,.59,0,.59-.61.59-.93,0-1.86,0-2.79,0-.44,0-.59-.09-.58-.57,0-3.77,0-7.54,0-11.31,0-.93.12-.89-.91-.88Z"/></g></g></svg>