<svg id="mobile_icon-14" xmlns="http://www.w3.org/2000/svg" xmlns:xlink="http://www.w3.org/1999/xlink" width="120" height="1680"><style>.st9{fill:#2173bc}.st10{fill:#fff}.st16{fill:#f6b545}.st22{fill:#ffdaaa}</style><path d="M89.3 85.7L75 71.3c8.8-10.9 7.2-26.8-3.7-35.6s-26.8-7.2-35.6 3.7-7.2 26.8 3.7 35.6c9.3 7.6 22.6 7.6 31.9 0l14.4 14.4c1 1 2.6 1 3.5 0 1-1 1-2.6 0-3.5l.1-.2zm-34-10.2c-11.2 0-20.3-9-20.3-20.2S44 35 55.2 35s20.3 9 20.3 20.2v.1c0 11.2-9 20.2-20.2 20.2z" fill="#ff5a34"/><path d="M85.3 175.4l-10.1-5.9L61.3 180l13.9 10.4 10.2-6c2.5-1.5 3.3-4.8 1.7-7.3-.5-.7-1.1-1.3-1.8-1.7z" fill="#ff9100"/><path d="M64.8 180l-12.3 15.8-16 12.5c-1-1-1.6-2.4-1.6-3.8v-49.3c0-1.4.6-2.8 1.6-3.8l16 12.7c0 .1 12.2 15.9 12.3 15.9z" fill="#25d9f8"/><path d="M64.8 180l-3.5 4.5v-9.1l3.5 4.6z" fill="#00c0f1"/><path d="M75.2 169.6L64.8 180l-28.3-28.5c.3-.3.7-.6 1.1-.8 1.6-1 3.7-1 5.3 0l18.3 10.8 14 8.1z" fill="#7fe881"/><path d="M75.2 169.6L64.8 180l-3.5-3.5v-14.9l13.9 8z" fill="#5bc980"/><path d="M75.2 190.4l-13.9 8-18.4 10.7c-.8.5-1.7.8-2.7.8-.9 0-1.8-.3-2.6-.7-.4-.2-.8-.5-1.1-.8L64.8 180l10.4 10.4z" fill="#ff637b"/><path d="M75.2 190.4l-13.9 8v-14.9l3.5-3.5 10.4 10.4z" fill="#e63950"/><path d="M65.2 279c2.4-2.4 3.6-5.7 3.4-9-3.6.3-7 1.8-9.5 4.3-2.4 2.3-3.7 5.5-3.4 8.9 3.6 0 7.1-1.5 9.5-4.2zm7 23.1c.1-4.5 2.4-8.7 6.2-11.1-2.3-3.6-6.2-5.8-10.5-6-4.5-.5-8.7 2.7-11 2.7s-5.9-2.6-9.5-2.5c-5 .2-9.6 3-12 7.4-5.1 9-1.3 22.5 3.7 30 2.4 3.6 5.3 7.6 9 7.5s5-2.4 9.4-2.4 5.6 2.4 9.5 2.3c3.8-.1 6.4-3.7 8.8-7.3 1.7-2.6 3-5.4 4-8.4-4.7-2.2-7.7-7-7.6-12.1v-.1z" fill="#ccd0d2"/><path class="st9" d="M86.7 425.1l-2.1-4.4c-.2-.5-.2-1 0-1.5l2.1-4.4c1.2-2.4.2-5.3-2.1-6.5l-4.3-2.3c-.5-.3-.8-.7-.9-1.2l-.8-4.7c-.5-2.6-2.9-4.4-5.6-4l-4.8.7c-.5.1-1-.1-1.4-.4l-3.4-3.4c-1.9-1.9-5-1.9-6.9 0l-3.4 3.4c-.4.3-.9.5-1.4.4l-4.8-.7c-2.6-.4-5.1 1.4-5.6 4l-.8 4.7c-.1.5-.4 1-.9 1.2l-4.3 2.3c-2.4 1.2-3.3 4.1-2.1 6.5l2.1 4.4c.2.5.2 1 0 1.5l-2.1 4.4c-1.2 2.4-.2 5.3 2.1 6.5l4.3 2.3c.5.2.8.7.9 1.2l.8 4.7c.4 2.4 2.5 4.1 4.9 4.1h.7l4.8-.7c.5-.1 1 .1 1.4.4l3.4 3.3c1.9 1.9 5 1.9 6.9 0l3.4-3.4c.4-.3.9-.5 1.4-.4l4.8.7c2.6.4 5.1-1.4 5.6-4l.8-4.7c.1-.5.4-.9.9-1.2l4.3-2.3c2.4-1.2 3.3-4.1 2.1-6.5zm-33.3-19.8c3.3 0 6 2.7 5.9 6.1s-2.7 6-6.1 5.9c-3.3 0-5.9-2.7-5.9-6 .1-3.4 2.8-6 6.1-6zM50.3 432c-.3.3-.7.5-1.2.5-.4 0-.9-.2-1.2-.5-.6-.6-.6-1.7 0-2.3L69.6 408c.6-.6 1.6-.7 2.3-.1l.1.1c.6.6.6 1.7 0 2.3L50.3 432zm16.2 2.7c-3.3 0-6-2.7-6-6s2.7-6 6-6 6 2.7 6 6-2.7 6-6 6z"/><path class="st9" d="M66.5 426c-1.5 0-2.7 1.2-2.7 2.7s1.2 2.7 2.7 2.7 2.7-1.2 2.7-2.7c.1-1.5-1.1-2.7-2.7-2.7.1 0 .1 0 0 0zm-13.1-12c1.5 0 2.7-1.2 2.7-2.7s-1.2-2.7-2.7-2.7-2.7 1.2-2.7 2.7c0 1.5 1.2 2.7 2.7 2.7zM52.6 544.7c-2.6 0-4.8 2.1-4.8 4.7s2.1 4.8 4.7 4.8 4.8-2.1 4.8-4.7v-.1c.1-2.5-2-4.7-4.7-4.7zm0 7.1c-1.3 0-2.4-1.1-2.4-2.4s1.1-2.4 2.4-2.4c1.3 0 2.4 1.1 2.4 2.4s-1 2.4-2.4 2.4zm35.8-10.6v5.1c0 1.3-1 2.3-2.3 2.3h-2.5c-.6-3.4-4-5.7-7.4-5-2.6.5-4.5 2.5-5 5H58.9c-.6-3.4-3.9-5.7-7.3-5.1-2.6.5-4.7 2.5-5.1 5.1h-3.2c-1.2-.1-2.2-1.1-2.2-2.3v-5.1h47.3zm-10.9 3.5c-2.6.3-4.5 2.7-4.2 5.3.3 2.2 2 3.9 4.2 4.2 2.6.3 5-1.6 5.3-4.2s-1.6-5-4.2-5.3h-1.1zm0 7.1c-1.3 0-2.4-1.1-2.4-2.4s1.1-2.4 2.4-2.4 2.4 1.1 2.4 2.4-1.1 2.4-2.4 2.4zm10-15.7l-9-8.7c-.6-.6-1.3-.9-2.1-.9h-4.5v-1.8c0-1.3-1-2.3-2.3-2.3H43.4c-1.3 0-2.3 1-2.3 2.3v.3l-9.3 1.1 16.5 2.1-16.7 1.6 16.6 2.4-16.6 1.5 9.5 1.8v4.5h47.4v-1.7c-.1-.8-.4-1.6-1-2.2zm-3.9.3h-8.7c-.2 0-.4-.2-.4-.4v-6.7c0-.2.2-.3.3-.3H76.7l7 6.7c.2.1.3.3.2.5.1.2-.1.3-.3.2z"/><path class="st10" d="M93.3 645.9v-2.8c0-3.9-3.2-7.1-7.1-7.1H32.4c-3.9 0-7.1 3.2-7.1 7.1v31.1c0 3.9 3.2 7.1 7.1 7.1h53.8c3.9 0 7.1-3.2 7.1-7.1v-28.3zm-65.1-2.8c0-2.4 1.9-4.3 4.3-4.3h53.8c2.4 0 4.3 1.9 4.3 4.3v1.4H28.2v-1.4zm0 4.2h62.3v5.7H28.2v-5.7zm58 31.2H32.4c-2.4 0-4.3-1.9-4.3-4.3v-18.4h62.3v18.4c.1 2.4-1.8 4.3-4.2 4.3z"/><path class="st10" d="M52.2 664.3h-17c-.8.1-1.3.8-1.2 1.6.1.6.6 1.1 1.2 1.2h17c.8-.1 1.3-.8 1.2-1.6 0-.6-.5-1.1-1.2-1.2zm0 5.7h-17c-.8 0-1.4.6-1.4 1.4 0 .8.6 1.4 1.4 1.4h17c.8 0 1.4-.6 1.4-1.4.1-.8-.6-1.4-1.4-1.4zm28.4-8.5h-2.8c-2.4 0-4.3 1.9-4.3 4.3v2.8c0 2.3 1.9 4.2 4.3 4.2h2.8c2.3 0 4.2-1.9 4.2-4.2v-2.8c0-2.4-1.9-4.3-4.2-4.3zm1.4 7.1c0 .8-.6 1.4-1.4 1.4h-2.8c-.8 0-1.4-.6-1.4-1.4v-2.8c0-.8.6-1.4 1.4-1.4h2.8c.8 0 1.4.7 1.4 1.4v2.8zM60 750.5c-11.6 0-21 9.3-21.1 20.9 0 3.9 1 7.7 3.1 11l16.6 26.8c.3.5.9.8 1.5.8s1.2-.3 1.5-.8l16.2-27c5.9-10 2.6-22.9-7.4-28.8-3.2-1.9-6.8-2.9-10.4-2.9zm15 30l-14.8 24.4L45 780.6c-5-8.2-2.3-19 5.9-23.9 8.2-5 19-2.3 23.9 5.9 3.3 5.4 3.3 12.3.1 17.8l.1.1z"/><path class="st10" d="M60 760.9c-5.8 0-10.5 4.7-10.5 10.4 0 5.8 4.7 10.5 10.4 10.5 5.8 0 10.5-4.7 10.5-10.4 0-5.8-4.6-10.5-10.4-10.5zm0 17.5c-3.9 0-7-3.1-7-7s3.1-7 7-7 7 3.1 7 7-3.1 7-7 7zM80.9 901.9l-1.8-3.6c-.2-.4-.2-.8 0-1.2l1.8-3.6c.9-2 .2-4.3-1.8-5.3l-3.5-1.9c-.4-.2-.6-.6-.7-1l-.7-3.9c-.3-2.2-2.4-3.8-4.6-3.5l-4 .6c-.4.1-.8-.1-1.1-.4l-2.9-2.7c-1.6-1.6-4.1-1.6-5.7 0l-2.9 2.7c-.3.3-.7.4-1.1.4l-4-.6c-2.2-.3-4.3 1.2-4.6 3.4l-.7 3.9c-.1.4-.3.8-.7 1l-3.5 1.8c-1.9 1-2.7 3.4-1.8 5.3l1.8 3.6c.2.4.2.8 0 1.2l-1.8 3.6c-.9 2-.1 4.3 1.8 5.3l3.5 1.9c.4.2.6.6.7 1l.7 3.9c.2 2.1 2 3.7 4.1 3.7h.6l4-.6c.4-.1.9.1 1.1.4L56 920c1.6 1.6 4.1 1.6 5.7 0l2.9-2.7c.3-.3.7-.5 1.1-.4l4 .6c2.2.3 4.3-1.2 4.6-3.4l.7-3.9c.1-.4.3-.8.7-1l3.5-1.9c1.9-.9 2.7-3.4 1.7-5.4zm-3 3.1l-3.5 1.9c-1.1.6-1.9 1.7-2.1 2.9l-.7 3.9c-.1.7-.8 1.2-1.6 1.1l-4-.6c-1.3-.2-2.5.2-3.4 1.1l-2.9 2.7c-.5.5-1.4.5-1.9 0l-2.9-2.7c-.8-.7-1.8-1.1-2.9-1.1h-.6l-4 .6c-.7.1-1.4-.4-1.6-1.1l-.7-4c-.2-1.2-1-2.3-2.1-2.9l-3.5-1.9c-.7-.3-.9-1.2-.6-1.8l1.8-3.6c.6-1.1.6-2.5 0-3.6l-1.8-3.6c-.3-.7-.1-1.5.6-1.8l3.5-1.9c1.1-.6 1.9-1.7 2.1-2.9l.7-3.9c.1-.7.8-1.3 1.6-1.1l4 .6c1.3.2 2.5-.2 3.4-1.1l2.9-2.7c.5-.5 1.4-.5 1.9 0l2.9 2.7c.9.9 2.2 1.3 3.4 1.1l4-.6c.7-.1 1.5.4 1.6 1.1l.7 3.9c.2 1.2 1 2.3 2.1 2.9l3.5 1.9c.7.3.9 1.2.6 1.8l-1.8 3.7c-.6 1.1-.6 2.5 0 3.6l1.8 3.6c.3.7.1 1.4-.5 1.8z"/><path class="st10" d="M68.6 887.8c-.5-.5-1.4-.5-1.9 0l-18 18c-.6.5-.6 1.4-.1 1.9.5.6 1.4.6 1.9.1l.1-.1 18-18c.5-.6.5-1.4 0-1.9zm-15.3 7.6c2.8-.1 5-2.4 4.9-5.1-.1-2.8-2.4-5-5.1-4.9-2.7.1-4.9 2.3-4.9 5 0 2.8 2.2 5 5.1 5zm0-7.2c1.3 0 2.3 1 2.3 2.3s-1 2.3-2.3 2.3c-1.3 0-2.3-1-2.3-2.3.1-1.3 1.1-2.3 2.3-2.3zM64 900c-2.8 0-5 2.2-5 5s2.2 5 5 5 5-2.2 5-5-2.2-5-5-5zm0 7.3c-1.3 0-2.3-1-2.3-2.3 0-1.3 1-2.3 2.3-2.3 1.3 0 2.3 1 2.3 2.3s-1 2.2-2.3 2.3z"/><path class="st9" d="M85.5 1035c-4.3-2.5-9-4.3-13.9-5.3l.5-.6c.2-.2.2-.5.2-.8l-.9-3.5c2.4-3.3 3.6-7.3 3.7-11.3v-6.6c0-8.3-6.8-15.1-15.1-15.1s-15.1 6.8-15.1 15.1v6.6c.1 4.1 1.3 8 3.7 11.3l-.9 3.5c-.1.3-.1.6 0 .9l.4.5c-4.8 1.1-9.4 2.8-13.6 5.3-1.8.8-3 2.6-2.9 4.6v7.7c-.1.5.2.9.6 1H87.4c.5 0 .9-.3.9-.8v-8c0-1.8-1.1-3.6-2.8-4.5zm-25.5-2.4l.3.6 2 4.6h-4.6l2.3-5.2zm-3 7.6v-.3h5.9v.3l.7 6.3h-7.3l.7-6.3zm12.9-13.5l.4 1.7-1 1.3v.2l-3.9 5.4-1.3 1.7-2.5-5.7c3-.5 5.8-2 7.9-4.2l.4-.4zm-23.1-19.8c0-7.3 5.9-13.2 13.2-13.2s13.2 5.9 13.2 13.2v6.6c0 3.7-1.2 7.4-3.4 10.4l-.3.3c-2.1 3.2-5.7 5.2-9.5 5.3-3.8-.2-7.3-2.1-9.5-5.2v-.3c-2.2-3-3.4-6.7-3.4-10.4l-.3-6.7zm11.7 24.4L56 1037l-1.3-1.7-3.9-5.4-1-1.4.4-1.7c.1.2.3.3.4.4 2.1 2.2 4.9 3.7 7.9 4.1zm-24.9 8.3c0-1.2.7-2.4 1.8-2.9 4.4-2.6 9.2-4.4 14.2-5.3l5.7 7.8-.9 7.2H33.6v-6.8zm52.8 6.8H65.7l-.8-7.5 5.6-7.7c5 1 9.8 2.7 14.2 5.3 1.1.6 1.8 1.9 1.8 3.2l-.1 6.7z"/><path class="st9" d="M87.4 1048.4H32.6c-.5 0-1-.4-1-.9v-7.8c0-2 1.1-3.9 2.9-4.7 4.2-2.5 8.8-4.2 13.6-5.3l-.3-.4c-.2-.3-.3-.6-.2-.9l.9-3.4c-2.3-3.3-3.6-7.3-3.7-11.4v-6.6c0-4 1.6-7.9 4.5-10.8 5.9-5.9 15.5-5.9 21.4 0 2.9 2.9 4.5 6.7 4.5 10.8v6.6c-.1 4.1-1.4 8-3.7 11.4l.9 3.4c.1.3 0 .6-.2.9l-.3.5c4.8 1 9.4 2.8 13.7 5.3 1.7 1 2.8 2.8 2.9 4.7v7.7c-.1.4-.5.9-1.1.9zm-39.6-20.1c-.1.3-.1.5 0 .8l.5.7c-4.8 1-9.4 2.8-13.6 5.3-1.7.8-2.8 2.6-2.8 4.5v7.7c0 .4.3.8.7.8h54.7c.4 0 .8-.3.8-.7v-7.8c0-1.9-1.1-3.6-2.8-4.5-4.3-2.5-9-4.3-13.8-5.3h-.2l.6-.8c.1-.2.1-.4 0-.6l-.9-3.5c2.3-3.3 3.6-7.2 3.7-11.3v-6.7c0-8.3-6.7-15-15-15s-15 6.7-15 15v6.6c.1 4 1.4 8 3.7 11.3l-.6 3.5zm38.7 18.2h-21l-.9-7.6 5.7-7.7c5 1 9.8 2.8 14.2 5.3 1.1.6 1.8 1.9 1.8 3.2l.2 6.8zm-20.8-.2h20.6v-6.7c0-1.2-.7-2.3-1.7-2.9-4.4-2.5-9.1-4.3-14.1-5.2L65 1039l.7 7.3zm-1.9.2h-7.6l.6-6.7h6.3v.4l.7 6.3zm-7.3-.2h7.1l-.7-6.3h-5.7v.2l-.7 6.1zm-2 .2h-21v-6.9c-.1-1.3.7-2.6 1.8-3.2 4.4-2.6 9.2-4.4 14.2-5.3l5.7 7.9-.7 7.5zm-20.8-.2h20.7l.8-7-5.7-7.7c-5 .9-9.7 2.7-14.1 5.2-1.1.5-1.7 1.6-1.7 2.8v6.7zm28.7-8.2h-4.9l2.5-5.5.4.9 2 4.6zm-4.6-.2h4.3l-1.9-4.5-.2-.4-2.2 4.9zm6.1-.6l-2.7-6c3.1-.4 6.1-1.9 8.2-4.2l.4-.4h.2l.4 2-1 1.4v.2l-3.9 5.4-1.6 1.6zm-2.3-5.9l2.4 5.4 1.1-1.5 3.9-5.4c0-.1.1-.2.2-.2l.9-1.3-.3-1.5-.3.3c-2 2.2-4.8 3.7-7.9 4.2zm-5.5 5.9l-1.4-1.9-3.9-5.4h-.2l-1-1.5.4-2 .4.4c2.1 2.3 4.9 3.8 8 4.2l-2.3 6.2zm-5.3-7.5l3.9 5.4 1.1 1.5 2.4-5.4c-3-.5-5.7-2-7.8-4.2l-.3-.3-.3 1.5 1 1.5zm9.2-.3c-3.8-.2-7.3-2.1-9.5-5.2l-.3-.3c-2.3-3-3.5-6.7-3.5-10.5v-6.6c0-7.4 6-13.3 13.3-13.3s13.3 6 13.3 13.3v6.6c0 3.8-1.2 7.5-3.5 10.5l-.3.3c-2 3.2-5.6 5.1-9.5 5.2zm-9.7-5.7h.2l.3.3c2.1 3.1 5.4 5.1 9.2 5.3 3.7-.1 7.2-2.1 9.3-5.1l.3-.3c2.2-3 3.4-6.6 3.4-10.3v-6.8c0-7.2-5.9-13.1-13.1-13.1s-13.1 5.9-13.1 13.1v6.6c0 3.7 1.2 7.4 3.5 10.3z"/><path d="M41.7 1121.9l-18.3 11.2v28.3h36.7v-28.2l-18.4-11.3z" fill="#5ec6d3"/><path d="M66.4 1134.4l-24.7-15.1-24.6 15.1-1.5-2.4 25.4-15.5c.5-.3 1-.3 1.5 0l25.4 15.5-1.5 2.4z" fill="#e85153"/><path d="M86 1144.8c-1.3-1-2.1-2.5-2.1-4.1 0-6.3-2.5-12.3-6.9-16.8l-4.5-4.5v-3.1l3.6-4.6c.3-.4.5-.9.5-1.5 0-1.2-1-2.3-2.3-2.3h-4l-1 2.1-2-2.1h-4.9c-1.3 0-2.3 1-2.3 2.3 0 .5.2 1 .5 1.5l3.6 4.6v3.1l-4.4 4.5c-4.5 4.4-7 10.5-7 16.8 0 1.6-.7 3.2-2.1 4.1-1.3 1-2.1 2.5-2.1 4.1 0 1.4 1.1 2.6 2.5 2.6H85.4c1.4 0 2.5-1.2 2.5-2.6.1-1.6-.6-3.2-1.9-4.1z" fill="#fdb441"/><path d="M73.1 1119.4h-9.3c-.9 0-1.6-.7-1.6-1.6s.7-1.6 1.6-1.6h9.3c.9 0 1.6.7 1.6 1.6s-.8 1.6-1.6 1.6z" fill="#ffcb5b"/><path d="M63.7 1116.3h5.2c.3 0 .5.2.5.4v.1c0 .3-.2.5-.5.5h-5.2c-.3 0-.5-.2-.5-.5v-.1c0-.2.2-.4.5-.4z" fill="#ffe278"/><path class="st16" d="M73.1 1116.3h-.5v1c0 .5-.4 1-.9 1H62.4c.2.6.8 1 1.5 1h9.3c.9-.2 1.4-1.1 1.2-1.9-.3-.5-.8-1-1.3-1.1z"/><path d="M69.9 1118.4H73c.3 0 .5.2.5.5s-.2.5-.4.5h-3.2c-.3 0-.5-.2-.5-.4v-.1c0-.2.2-.5.5-.5z" fill="#f19920"/><path class="st16" d="M67.3 1119.4h2.1v8.3h-2.1v-8.3z"/><ellipse transform="rotate(-.573 68.622 1134.833) scale(.99995)" class="st16" cx="68.4" cy="1134.9" rx="8.3" ry="8.3"/><path d="M69.4 1133.9h-2.1c-.6 0-1-.5-1-1 0-.6.5-1 1-1h3.1c.6-.1 1-.6.9-1.2-.1-.5-.4-.8-.9-.9h-1c0-.6-.5-1-1-1-.6 0-1 .5-1 1-1.7 0-3.1 1.4-3.1 3.1s1.4 3.1 3.1 3.1h2.1c.6 0 1 .5 1 1s-.5 1-1 1h-3c-.6-.1-1.1.3-1.2.9s.3 1.1.9 1.2h1.3c0 .6.5 1 1 1 .6 0 1-.5 1-1 1.7 0 3.1-1.4 3.1-3.1-.1-1.7-1.5-3.1-3.2-3.1z" fill="#e78825"/><path d="M36.7 1142h10v18.5h-10V1142z" fill="#378dd6"/><path d="M38.6 1130.3h6.3v6.3h-6.3v-6.3z" fill="#f5b542"/><path d="M104 1170.6v-31c0-.8-.6-1.4-1.4-1.4H91.2c-.8 0-1.4.6-1.4 1.4v31c0 .8.6 1.4 1.4 1.4h11.3c.8.1 1.4-.5 1.5-1.4 0 .1 0 0 0 0z" fill="#5aaae7"/><path class="st22" d="M28 1160.7h19.5c-1.6 0-2.8-1.3-2.8-2.8v-2.8c0-3.1 2.5-5.6 5.6-5.6h25.4l7.6-7.6c.5-.5 1.2-.8 2-.8h4.5v22.6l-7.8 8c-.5.3-1 .5-1.6.5H27.6c-3.1 0-5.6-2.5-5.6-5.7v-.5c.4-3.2 3-5.4 6-5.3z"/><path class="st22" d="M89.8 1141v22.6l-2.8 2.9V1141h2.8z"/><path d="M67.2 1157.9v2.8H47.5c-1.6 0-2.8-1.3-2.8-2.8h22.5zm22.6-16.9v22.6l-2.8 2.9V1141h2.8z" fill="#ffc477"/><path d="M81.4 1278.2c-3.2-5.1-8.1-8.9-13.8-10.7 5.5-4.2 6.5-12 2.3-17.5s-12-6.5-17.5-2.3-6.5 12-2.3 17.5c.7.9 1.5 1.7 2.3 2.3-5.7 1.8-10.6 5.6-13.8 10.7-10.1-11.8-8.6-29.6 3.2-39.6s29.6-8.6 39.6 3.2c8.9 10.5 8.9 25.9 0 36.4m-30-20.5c0-4.8 3.9-8.6 8.6-8.6s8.6 3.9 8.6 8.6c0 4.8-3.9 8.6-8.6 8.6-4.8 0-8.6-3.9-8.6-8.6M60 1288c-6.9 0-13.5-2.5-18.7-7.1l.2-.2c5.9-10.2 18.9-13.8 29.1-7.9 3.3 1.9 6 4.6 7.9 7.9l.2.2c-5.2 4.6-11.8 7.1-18.7 7.1m0-60c-17.7 0-32 14.3-32 32s14.3 32 32 32 32-14.3 32-32-14.3-32-32-32" fill-rule="evenodd" clip-rule="evenodd" fill="#fff"/><defs><path id="SVGID_1_" d="M33.3 1348h54v66.7h-54z"/></defs><clipPath id="SVGID_2_"><use xlink:href="#SVGID_1_" overflow="visible"/></clipPath><g clip-path="url(#SVGID_2_)"><path d="M87.3 1358.5l-27-10.4-27 10.4v19.1c0 13.3 3.8 30.5 27 36.9 23.1-6.4 26.9-24 26.9-36.9l.1-19.1z" fill="#f3f3f3"/></g><path d="M33.3 1377.6c0 13.3 3.8 30.5 27 36.9v-66.4c-1 .3-27 10.4-27 10.4v19.1z" fill="#e7e7e7"/><path d="M83 1361.2l-22.7-9.2c-.5.2-22.9 8.8-22.8 8.8v16.7c0 11.6 2.3 27.4 22.8 33 20.4-5.6 22.7-21.7 22.7-33v-16.3z" fill="#2890dd"/><path d="M60.3 1352c-.5.2-22.8 8.8-22.8 8.7v16.7c0 11.6 2.3 27.4 22.8 33V1352z" opacity=".1"/><path d="M60.3 1352.1v31h22.5v-21.8c.1-.1-22.5-9.2-22.5-9.2z" fill="#fff" fill-opacity=".15"/><path d="M37.8 1383h22.6v27.7c-6.5-1.5-12.2-5.1-16.5-10.2-4-5-6.2-11.1-6.1-17.5z" opacity=".2"/><path d="M54.5 1375.6v-6.7c.1-1.9 1.6-3.4 3.5-3.6h3.8c2-.3 3.8 1.2 4.1 3.2v7.3h3.3v-6.8c.1-3.8-3-7-6.8-7H58c-3.8.2-6.8 3.2-6.8 7v6.7l3.3-.1z" fill="#ebf2f2"/><path d="M62.5 1361.9H60v3.4h2.5c1.9 0 3.5 1.5 3.6 3.4v7h3.3v-6.8c.1-3.8-2.8-6.9-6.6-7h-.3z" opacity=".2" fill="#99b8dd"/><path d="M71 1392.7c.2 1.6-1 3-2.6 3.2H53.1c-1.8.1-3.4-1.3-3.5-3.2v-16c0-1.8 1.7-2.1 3.5-2.1h15c1.8 0 2.9.3 2.9 2.1v16z" fill="#f7a81c"/><path d="M60 1374.5h8c1.8 0 2.9.3 2.9 2.1v16c.2 1.6-1 3-2.6 3.2H68m-16.2-3.2c0 .3-.2.5-.5.5-.3.1-.5-.1-.6-.4V1379.8c0-.3.2-.5.5-.5s.5.2.5.5l.1 12.8z" fill="#d88416" fill-opacity=".4"/><path d="M63.2 1382.9c.1-1.5-1.1-2.7-2.5-2.8h-.1c-1.5 0-2.7 1.2-2.7 2.7v.1c0 1.1.7 2 1.7 2.5v5.1c0 .7.4 1.3 1.1 1.3.6 0 1.1-.5 1.1-1.1V1385.5c.9-.6 1.6-1.6 1.4-2.6z" fill="#4c3213"/><path d="M60.5 1391.7c.7 0 1.2-.5 1.2-1.2V1385.3c1-.4 1.6-1.4 1.6-2.5 0-1.5-1.2-2.7-2.7-2.8" fill="#331f09"/><path class="st10" d="M36.7 1520.7c.2.2.4.3.6.3h.2c1.2-.2 2.3-.4 3.4-.7 5.2-1.3 10.1-3.9 14.1-7.4h.1c6.2.8 12.5-.1 18.3-2.4 3.9-1.5 7.3-4 10-7.1 4.9-5.6 4.9-13.9 0-19.5-2.7-3.2-6.1-5.6-10-7.1-4.4-1.8-9.1-2.7-13.8-2.7s-9.4.9-13.8 2.7c-3.8 1.5-7.2 3.9-9.9 7.1-2.3 2.7-3.6 6.2-3.7 9.8 0 3 .9 6 2.7 8.5 2 2.8 4.6 5.1 7.7 6.7h.2v.3c-.2.8-.5 1.6-.8 2.4-.3.7-.6 1.4-.9 1.8-.3.6-.6 1.1-1 1.6-.3.4-.6.9-1 1.3l-1.1 1.2-1 1.1-.1.2-.4.5v.5c0 .2 0 .6.2.9zm1.2-20.4c-1.5-2-2.3-4.3-2.3-6.8 0-3.1 1.2-6 3.3-8.2 2.5-2.6 5.5-4.6 8.9-5.8 3.8-1.5 7.9-2.2 11.9-2.2 4.1 0 8.2.7 12 2.2 3.4 1.2 6.4 3.2 8.9 5.8 2.1 2.2 3.3 5.1 3.3 8.1-.1 3-1.2 5.9-3.3 8.1-2.5 2.6-5.5 4.7-8.9 5.9-3.8 1.5-7.9 2.2-12 2.2-1.4 0-2.7-.1-4.1-.3l-1.6-.1-1.2 1.1c-2.6 2.2-5.5 4-8.6 5.3l-.9.4.5-.9c.9-1.7 1.7-3.5 2.1-5.3l.8-2.7-2.5-1.4c-2.4-1.2-4.6-3.1-6.3-5.4zM46.5 1629.5h33c3.8 0 6.8-3 6.8-6.8V1608h-.6l-42-5.8v-7.3L33 1590c-.9-.4-1.8 0-2.2.9-.4.9 0 1.8.9 2.2l8 3.5v36.5c0 3.4 2.6 6.3 6 6.8-.6 1-1 2.2-1 3.5.2 3.7 3.5 6.5 7.2 6.3 3.4-.2 6.1-2.9 6.3-6.3 0-1.2-.3-2.4-.9-3.4h15c-.6 1-.9 2.2-.9 3.4a6.7 6.7 0 1 0 6.7-6.7H46.5c-1.9 0-3.5-1.6-3.5-3.5v-4.5c1.1.5 2.3.8 3.5.8zm8.3 13.8c0 1.9-1.5 3.4-3.4 3.4s-3.4-1.5-3.4-3.4 1.5-3.4 3.4-3.4 3.4 1.5 3.4 3.4zm26.5 0c0 1.9-1.5 3.4-3.4 3.4s-3.4-1.5-3.4-3.4 1.5-3.4 3.4-3.4h.1c1.8 0 3.3 1.5 3.3 3.4zm-1.7-17.1H46.5c-1.9 0-3.5-1.6-3.5-3.5v-18l40 5.5v12.5c0 1.9-1.5 3.5-3.4 3.5z"/></svg>